<svg width="264" height="66" viewBox="0 0 264 66" fill="none" xmlns="http://www.w3.org/2000/svg">
<path d="M1.032 12.624C1.032 10.992 1.4 9.528 2.136 8.232C2.872 6.92 3.872 5.896 5.136 5.16C6.416 4.424 7.832 4.056 9.384 4.056C11.208 4.056 12.8 4.496 14.16 5.376C15.52 6.256 16.512 7.504 17.136 9.12H14.52C14.056 8.112 13.384 7.336 12.504 6.792C11.64 6.248 10.6 5.976 9.384 5.976C8.216 5.976 7.168 6.248 6.24 6.792C5.312 7.336 4.584 8.112 4.056 9.12C3.528 10.112 3.264 11.28 3.264 12.624C3.264 13.952 3.528 15.12 4.056 16.128C4.584 17.12 5.312 17.888 6.24 18.432C7.168 18.976 8.216 19.248 9.384 19.248C10.6 19.248 11.64 18.984 12.504 18.456C13.384 17.912 14.056 17.136 14.52 16.128H17.136C16.512 17.728 15.52 18.968 14.16 19.848C12.8 20.712 11.208 21.144 9.384 21.144C7.832 21.144 6.416 20.784 5.136 20.064C3.872 19.328 2.872 18.312 2.136 17.016C1.4 15.72 1.032 14.256 1.032 12.624ZM26.2335 21.216C25.0015 21.216 23.8815 20.936 22.8735 20.376C21.8815 19.816 21.0975 19.024 20.5215 18C19.9615 16.96 19.6815 15.76 19.6815 14.4C19.6815 13.056 19.9695 11.872 20.5455 10.848C21.1375 9.808 21.9375 9.016 22.9455 8.472C23.9535 7.912 25.0815 7.632 26.3295 7.632C27.5775 7.632 28.7055 7.912 29.7135 8.472C30.7215 9.016 31.5135 9.8 32.0895 10.824C32.6815 11.848 32.9775 13.04 32.9775 14.4C32.9775 15.76 32.6735 16.96 32.0655 18C31.4735 19.024 30.6655 19.816 29.6415 20.376C28.6175 20.936 27.4815 21.216 26.2335 21.216ZM26.2335 19.296C27.0175 19.296 27.7535 19.112 28.4415 18.744C29.1295 18.376 29.6815 17.824 30.0975 17.088C30.5295 16.352 30.7455 15.456 30.7455 14.4C30.7455 13.344 30.5375 12.448 30.1215 11.712C29.7055 10.976 29.1615 10.432 28.4895 10.08C27.8175 9.712 27.0895 9.528 26.3055 9.528C25.5055 9.528 24.7695 9.712 24.0975 10.08C23.4415 10.432 22.9135 10.976 22.5135 11.712C22.1135 12.448 21.9135 13.344 21.9135 14.4C21.9135 15.472 22.1055 16.376 22.4895 17.112C22.8895 17.848 23.4175 18.4 24.0735 18.768C24.7295 19.12 25.4495 19.296 26.2335 19.296ZM42.3674 7.608C43.9674 7.608 45.2634 8.096 46.2554 9.072C47.2474 10.032 47.7434 11.424 47.7434 13.248V21H45.5834V13.56C45.5834 12.248 45.2554 11.248 44.5994 10.56C43.9434 9.856 43.0474 9.504 41.9114 9.504C40.7594 9.504 39.8394 9.864 39.1514 10.584C38.4794 11.304 38.1434 12.352 38.1434 13.728V21H35.9594V7.848H38.1434V9.72C38.5754 9.048 39.1594 8.528 39.8954 8.16C40.6474 7.792 41.4714 7.608 42.3674 7.608ZM57.8294 7.608C59.4294 7.608 60.7254 8.096 61.7174 9.072C62.7094 10.032 63.2054 11.424 63.2054 13.248V21H61.0454V13.56C61.0454 12.248 60.7174 11.248 60.0614 10.56C59.4054 9.856 58.5094 9.504 57.3734 9.504C56.2214 9.504 55.3014 9.864 54.6134 10.584C53.9414 11.304 53.6054 12.352 53.6054 13.728V21H51.4214V7.848H53.6054V9.72C54.0374 9.048 54.6214 8.528 55.3574 8.16C56.1094 7.792 56.9334 7.608 57.8294 7.608ZM78.8833 13.92C78.8833 14.336 78.8593 14.776 78.8113 15.24H68.2993C68.3793 16.536 68.8193 17.552 69.6193 18.288C70.4353 19.008 71.4193 19.368 72.5713 19.368C73.5153 19.368 74.2993 19.152 74.9233 18.72C75.5633 18.272 76.0113 17.68 76.2673 16.944H78.6193C78.2673 18.208 77.5633 19.24 76.5073 20.04C75.4513 20.824 74.1393 21.216 72.5713 21.216C71.3233 21.216 70.2033 20.936 69.2113 20.376C68.2353 19.816 67.4673 19.024 66.9073 18C66.3473 16.96 66.0673 15.76 66.0673 14.4C66.0673 13.04 66.3393 11.848 66.8833 10.824C67.4273 9.8 68.1873 9.016 69.1633 8.472C70.1553 7.912 71.2913 7.632 72.5713 7.632C73.8193 7.632 74.9233 7.904 75.8833 8.448C76.8433 8.992 77.5793 9.744 78.0913 10.704C78.6193 11.648 78.8833 12.72 78.8833 13.92ZM76.6273 13.464C76.6273 12.632 76.4433 11.92 76.0753 11.328C75.7073 10.72 75.2033 10.264 74.5633 9.96C73.9393 9.64 73.2433 9.48 72.4753 9.48C71.3713 9.48 70.4273 9.832 69.6433 10.536C68.8753 11.24 68.4353 12.216 68.3233 13.464H76.6273ZM81.0606 14.4C81.0606 13.04 81.3326 11.856 81.8766 10.848C82.4206 9.824 83.1726 9.032 84.1326 8.472C85.1086 7.912 86.2206 7.632 87.4686 7.632C89.0846 7.632 90.4126 8.024 91.4526 8.808C92.5086 9.592 93.2046 10.68 93.5406 12.072H91.1886C90.9646 11.272 90.5246 10.64 89.8686 10.176C89.2286 9.712 88.4286 9.48 87.4686 9.48C86.2206 9.48 85.2126 9.912 84.4446 10.776C83.6766 11.624 83.2926 12.832 83.2926 14.4C83.2926 15.984 83.6766 17.208 84.4446 18.072C85.2126 18.936 86.2206 19.368 87.4686 19.368C88.4286 19.368 89.2286 19.144 89.8686 18.696C90.5086 18.248 90.9486 17.608 91.1886 16.776H93.5406C93.1886 18.12 92.4846 19.2 91.4286 20.016C90.3726 20.816 89.0526 21.216 87.4686 21.216C86.2206 21.216 85.1086 20.936 84.1326 20.376C83.1726 19.816 82.4206 19.024 81.8766 18C81.3326 16.976 81.0606 15.776 81.0606 14.4ZM99.2291 9.648V17.4C99.2291 18.04 99.3651 18.496 99.6371 18.768C99.9091 19.024 100.381 19.152 101.053 19.152H102.661V21H100.693C99.4771 21 98.5651 20.72 97.9571 20.16C97.3491 19.6 97.0451 18.68 97.0451 17.4V9.648H95.3411V7.848H97.0451V4.536H99.2291V7.848H102.661V9.648H99.2291ZM129.447 7.848L125.343 21H123.087L119.919 10.56L116.751 21H114.495L110.367 7.848H112.599L115.623 18.888L118.887 7.848H121.119L124.311 18.912L127.287 7.848H129.447ZM132.852 5.712C132.436 5.712 132.084 5.568 131.796 5.28C131.508 4.992 131.364 4.64 131.364 4.224C131.364 3.808 131.508 3.456 131.796 3.168C132.084 2.88 132.436 2.736 132.852 2.736C133.252 2.736 133.588 2.88 133.86 3.168C134.148 3.456 134.292 3.808 134.292 4.224C134.292 4.64 134.148 4.992 133.86 5.28C133.588 5.568 133.252 5.712 132.852 5.712ZM133.908 7.848V21H131.724V7.848H133.908ZM140.405 9.648V17.4C140.405 18.04 140.541 18.496 140.813 18.768C141.085 19.024 141.557 19.152 142.229 19.152H143.837V21H141.869C140.653 21 139.741 20.72 139.133 20.16C138.525 19.6 138.221 18.68 138.221 17.4V9.648H136.517V7.848H138.221V4.536H140.405V7.848H143.837V9.648H140.405ZM153.122 7.608C154.114 7.608 155.01 7.824 155.81 8.256C156.61 8.672 157.234 9.304 157.682 10.152C158.146 11 158.378 12.032 158.378 13.248V21H156.218V13.56C156.218 12.248 155.89 11.248 155.234 10.56C154.578 9.856 153.682 9.504 152.546 9.504C151.394 9.504 150.474 9.864 149.786 10.584C149.114 11.304 148.778 12.352 148.778 13.728V21H146.594V3.24H148.778V9.72C149.21 9.048 149.802 8.528 150.554 8.16C151.322 7.792 152.178 7.608 153.122 7.608ZM170.7 4.272V14.856C170.7 16.344 171.06 17.448 171.78 18.168C172.516 18.888 173.532 19.248 174.828 19.248C176.108 19.248 177.108 18.888 177.828 18.168C178.564 17.448 178.932 16.344 178.932 14.856V4.272H181.116V14.832C181.116 16.224 180.836 17.4 180.276 18.36C179.716 19.304 178.956 20.008 177.996 20.472C177.052 20.936 175.988 21.168 174.804 21.168C173.62 21.168 172.548 20.936 171.588 20.472C170.644 20.008 169.892 19.304 169.332 18.36C168.788 17.4 168.516 16.224 168.516 14.832V4.272H170.7ZM189.526 21.216C188.518 21.216 187.614 21.048 186.814 20.712C186.014 20.36 185.382 19.88 184.918 19.272C184.454 18.648 184.198 17.936 184.15 17.136H186.406C186.47 17.792 186.774 18.328 187.318 18.744C187.878 19.16 188.606 19.368 189.502 19.368C190.334 19.368 190.99 19.184 191.47 18.816C191.95 18.448 192.19 17.984 192.19 17.424C192.19 16.848 191.934 16.424 191.422 16.152C190.91 15.864 190.118 15.584 189.046 15.312C188.07 15.056 187.27 14.8 186.646 14.544C186.038 14.272 185.51 13.88 185.062 13.368C184.63 12.84 184.414 12.152 184.414 11.304C184.414 10.632 184.614 10.016 185.014 9.456C185.414 8.896 185.982 8.456 186.718 8.136C187.454 7.8 188.294 7.632 189.238 7.632C190.694 7.632 191.87 8 192.766 8.736C193.662 9.472 194.142 10.48 194.206 11.76H192.022C191.974 11.072 191.694 10.52 191.182 10.104C190.686 9.688 190.014 9.48 189.166 9.48C188.382 9.48 187.758 9.648 187.294 9.984C186.83 10.32 186.598 10.76 186.598 11.304C186.598 11.736 186.734 12.096 187.006 12.384C187.294 12.656 187.646 12.88 188.062 13.056C188.494 13.216 189.086 13.4 189.838 13.608C190.782 13.864 191.55 14.12 192.142 14.376C192.734 14.616 193.238 14.984 193.654 15.48C194.086 15.976 194.31 16.624 194.326 17.424C194.326 18.144 194.126 18.792 193.726 19.368C193.326 19.944 192.758 20.4 192.022 20.736C191.302 21.056 190.47 21.216 189.526 21.216Z" fill="#131313"/>
<g clip-path="url(#clip0_1_75)">
<path d="M24 54C24 47.3726 18.6274 42 12 42C5.37258 42 0 47.3726 0 54C0 59.9895 4.3882 64.954 10.125 65.8542V57.4688H7.07812V54H10.125V51.3563C10.125 48.3488 11.9166 46.6875 14.6576 46.6875C15.9701 46.6875 17.3438 46.9219 17.3438 46.9219V49.875H15.8306C14.34 49.875 13.875 50.8001 13.875 51.75V54H17.2031L16.6711 57.4688H13.875V65.8542C19.6118 64.954 24 59.9895 24 54Z" fill="#1877F2"/>
<path d="M16.6711 57.4688L17.2031 54H13.875V51.75C13.875 50.801 14.34 49.875 15.8306 49.875H17.3438V46.9219C17.3438 46.9219 15.9705 46.6875 14.6576 46.6875C11.9166 46.6875 10.125 48.3488 10.125 51.3563V54H7.07812V57.4688H10.125V65.8542C11.3674 66.0486 12.6326 66.0486 13.875 65.8542V57.4688H16.6711Z" fill="white"/>
</g>
<path d="M55.5475 63.7506C64.6042 63.7506 69.5578 56.2473 69.5578 49.7404C69.5578 49.5273 69.5578 49.3151 69.5434 49.1039C70.507 48.4069 71.3389 47.5438 72 46.5551C71.1014 46.9535 70.148 47.2147 69.1718 47.3298C70.1998 46.7145 70.9692 45.7466 71.3366 44.6063C70.3701 45.1799 69.3126 45.5841 68.2099 45.8015C67.4675 45.0121 66.4856 44.4894 65.4162 44.3142C64.3468 44.139 63.2494 44.3212 62.294 44.8326C61.3385 45.3439 60.5782 46.1559 60.1307 47.1429C59.6833 48.1298 59.5735 49.2368 59.8186 50.2924C57.8609 50.1942 55.9458 49.6854 54.1975 48.7991C52.4492 47.9128 50.9068 46.6688 49.6704 45.1478C49.0407 46.2318 48.8479 47.515 49.1311 48.7362C49.4143 49.9574 50.1523 51.0247 51.1949 51.7209C50.4112 51.6979 49.6446 51.4865 48.96 51.1046V51.167C48.9603 52.3038 49.3539 53.4056 50.0739 54.2853C50.7939 55.1651 51.7961 55.7687 52.9104 55.9938C52.1855 56.1916 51.4249 56.2205 50.687 56.0783C51.0018 57.0566 51.6144 57.9122 52.4392 58.5253C53.264 59.1384 54.2598 59.4784 55.2874 59.4978C54.2664 60.3003 53.0973 60.8936 51.8469 61.2438C50.5964 61.594 49.2892 61.6943 48 61.5388C50.2518 62.9838 52.8719 63.7503 55.5475 63.7468" fill="#1DA1F2"/>
<g clip-path="url(#clip1_1_75)">
<path d="M166.228 42H145.772C145.302 42 144.851 42.1867 144.519 42.5189C144.187 42.8512 144 43.3018 144 43.7717V64.2283C144 64.6982 144.187 65.1488 144.519 65.4811C144.851 65.8133 145.302 66 145.772 66H166.228C166.698 66 167.149 65.8133 167.481 65.4811C167.813 65.1488 168 64.6982 168 64.2283V43.7717C168 43.3018 167.813 42.8512 167.481 42.5189C167.149 42.1867 166.698 42 166.228 42ZM151.153 62.445H147.545V50.9833H151.153V62.445ZM149.347 49.395C148.937 49.3927 148.538 49.2692 148.199 49.0401C147.86 48.811 147.596 48.4865 147.441 48.1077C147.286 47.7288 147.247 47.3126 147.328 46.9115C147.409 46.5103 147.608 46.1423 147.898 45.8538C148.189 45.5653 148.558 45.3693 148.959 45.2905C149.361 45.2117 149.777 45.2536 150.155 45.411C150.533 45.5684 150.856 45.8342 151.082 46.1748C151.309 46.5155 151.43 46.9157 151.43 47.325C151.434 47.599 151.383 47.871 151.279 48.1248C151.176 48.3786 151.022 48.6089 150.828 48.8021C150.633 48.9952 150.402 49.1473 150.147 49.2492C149.893 49.351 149.621 49.4006 149.347 49.395ZM164.453 62.455H160.847V56.1933C160.847 54.3467 160.062 53.7767 159.048 53.7767C157.978 53.7767 156.928 54.5833 156.928 56.24V62.455H153.32V50.9917H156.79V52.58H156.837C157.185 51.875 158.405 50.67 160.267 50.67C162.28 50.67 164.455 51.865 164.455 55.365L164.453 62.455Z" fill="#0A66C2"/>
</g>
<g clip-path="url(#clip2_1_75)">
<path d="M215.522 48.1854C215.386 47.6748 215.119 47.2088 214.747 46.8341C214.374 46.4593 213.91 46.1889 213.4 46.05C211.524 45.5454 204.024 45.5454 204.024 45.5454C204.024 45.5454 196.524 45.5454 194.647 46.05C194.138 46.1889 193.673 46.4593 193.301 46.8341C192.929 47.2088 192.661 47.6748 192.526 48.1854C192.024 50.07 192.024 54 192.024 54C192.024 54 192.024 57.93 192.526 59.8145C192.661 60.3251 192.929 60.7911 193.301 61.1658C193.673 61.5406 194.138 61.811 194.647 61.95C196.524 62.4545 204.024 62.4545 204.024 62.4545C204.024 62.4545 211.524 62.4545 213.4 61.95C213.91 61.811 214.374 61.5406 214.747 61.1658C215.119 60.7911 215.386 60.3251 215.522 59.8145C216.024 57.93 216.024 54 216.024 54C216.024 54 216.024 50.07 215.522 48.1854Z" fill="#FF0302"/>
<path d="M201.569 57.5687V50.4314L207.842 54L201.569 57.5687Z" fill="#FEFEFE"/>
</g>
<g clip-path="url(#clip3_1_75)">
<path d="M252 66C258.627 66 264 60.6274 264 54C264 47.3726 258.627 42 252 42C245.373 42 240 47.3726 240 54C240 60.6274 245.373 66 252 66Z" fill="white"/>
<path d="M252 42C245.373 42 240 47.3728 240 54C240 59.0864 243.16 63.4321 247.625 65.1802C247.516 64.2321 247.427 62.7704 247.664 61.7333C247.881 60.7951 249.067 55.7679 249.067 55.7679C249.067 55.7679 248.711 55.0469 248.711 53.9901C248.711 52.321 249.679 51.0765 250.884 51.0765C251.911 51.0765 252.405 51.8469 252.405 52.7654C252.405 53.7926 251.753 55.3333 251.407 56.7654C251.121 57.9605 252.01 58.9383 253.185 58.9383C255.319 58.9383 256.958 56.6864 256.958 53.4469C256.958 50.5728 254.894 48.5679 251.941 48.5679C248.523 48.5679 246.519 51.1259 246.519 53.7728C246.519 54.8 246.914 55.9062 247.407 56.5086C247.506 56.6272 247.516 56.7358 247.486 56.8543C247.398 57.2296 247.19 58.0494 247.151 58.2173C247.101 58.4346 246.973 58.484 246.746 58.3753C245.244 57.6741 244.306 55.4914 244.306 53.7235C244.306 49.9407 247.052 46.4642 252.237 46.4642C256.395 46.4642 259.635 49.4272 259.635 53.3975C259.635 57.5358 257.027 60.8642 253.412 60.8642C252.198 60.8642 251.052 60.2321 250.667 59.4815C250.667 59.4815 250.064 61.7728 249.916 62.3358C249.649 63.3827 248.919 64.6864 248.425 65.4864C249.551 65.8321 250.736 66.0198 251.98 66.0198C258.607 66.0198 263.98 60.6469 263.98 54.0198C264 47.3728 258.627 42 252 42Z" fill="#E60019"/>
</g>
<path d="M115 66H101C98.1304 66 96 63.8696 96 61V47C96 44.1304 98.1304 42 101 42H115C117.87 42 120 44.1304 120 47V61C120 63.8696 117.87 66 115 66Z" fill="url(#paint0_radial_1_75)"/>
<path d="M108 47C110.435 47 111.047 46.9471 112 47C112.9 47.053 112.682 46.8941 113 47C113.424 47.1589 113.682 47.6824 114 48C114.318 48.3177 114.841 48.5765 115 49C115.106 49.3177 114.947 49.1 115 50C115 50.9 115 51.5647 115 54C115 56.4353 115.053 57.0471 115 58C114.947 58.9 115.106 58.6824 115 59C114.841 59.4236 114.318 59.6824 114 60C113.682 60.3177 113.424 60.8412 113 61C112.682 61.1059 112.9 60.9471 112 61C111.1 61 110.435 61 108 61C105.565 61 104.953 61.053 104 61C103.1 60.9471 103.318 61.1059 103 61C102.577 60.8412 102.318 60.3177 102 60C101.682 59.6824 101.159 59.4236 101 59C100.894 58.6824 101.053 58.9 101 58C101 57.1 101 56.4353 101 54C101 51.5647 100.947 50.953 101 50C101.053 49.1 100.894 49.3177 101 49C101.159 48.5765 101.682 48.3177 102 48C102.318 47.6824 102.577 47.1589 103 47C103.318 46.8941 103.1 47.053 104 47C104.9 47 105.565 47 108 47ZM108 45C105.565 45 104.953 44.9471 104 45C103.047 45.053 102.582 44.7883 102 45C101.418 45.2118 101.477 46.4706 101 47C100.524 47.5294 99.2647 47.4177 99 48C98.7883 48.5824 99.053 49.0471 99 50C98.9471 50.953 99 51.5647 99 54C99 56.4353 98.9471 57.0471 99 58C99.053 58.953 98.7883 59.4177 99 60C99.2118 60.5824 100.471 60.5236 101 61C101.477 61.4765 101.418 62.7353 102 63C102.582 63.2118 103.047 62.9471 104 63C104.953 63.053 105.565 63 108 63C110.435 63 111.047 63.053 112 63C112.953 62.9471 113.418 63.2118 114 63C114.582 62.7883 114.524 61.5294 115 61C115.477 60.5236 116.735 60.5824 117 60C117.212 59.4177 116.947 58.953 117 58C117.053 57.0471 117 56.4353 117 54C117 51.5647 117.053 50.953 117 50C116.947 49.0471 117.212 48.5824 117 48C116.788 47.4177 115.529 47.4765 115 47C114.471 46.5236 114.582 45.2647 114 45C113.418 44.7883 112.953 45.053 112 45C111.047 44.9471 110.435 45 108 45Z" fill="white"/>
<path d="M108 49C105.5 49 103 51.5 103 54C103 56.5 105.5 58 108 58C110.5 58 112 56.5 112 54C112 51.5 110.5 49 108 49ZM108 57C106.35 57 105 55.65 105 54C105 52.35 106.35 51 108 51C109.65 51 111 52.35 111 54C111 55.65 109.65 57 108 57Z" fill="white"/>
<path d="M113 50C113.552 50 114 49.5523 114 49C114 48.4477 113.552 48 113 48C112.448 48 112 48.4477 112 49C112 49.5523 112.448 50 113 50Z" fill="white"/>
<defs>
<radialGradient id="paint0_radial_1_75" cx="0" cy="0" r="1" gradientUnits="userSpaceOnUse" gradientTransform="translate(100.961 70.8499) rotate(-49.945) scale(36.3368 24.0035)">
<stop offset="0.073" stop-color="#EACC7B"/>
<stop offset="0.184" stop-color="#ECAA59"/>
<stop offset="0.307" stop-color="#EF802E"/>
<stop offset="0.358" stop-color="#EF6D3A"/>
<stop offset="0.46" stop-color="#F04B50"/>
<stop offset="0.516" stop-color="#F03E58"/>
<stop offset="0.689" stop-color="#DB359E"/>
<stop offset="0.724" stop-color="#CE37A4"/>
<stop offset="0.789" stop-color="#AC3CB4"/>
<stop offset="0.877" stop-color="#7544CF"/>
<stop offset="0.98" stop-color="#2B4FF2"/>
</radialGradient>
<clipPath id="clip0_1_75">
<rect width="24" height="24" fill="white" transform="translate(0 42)"/>
</clipPath>
<clipPath id="clip1_1_75">
<rect width="24" height="24" fill="white" transform="translate(144 42)"/>
</clipPath>
<clipPath id="clip2_1_75">
<rect width="24" height="24" fill="white" transform="translate(192 42)"/>
</clipPath>
<clipPath id="clip3_1_75">
<rect width="24" height="24" fill="white" transform="translate(240 42)"/>
</clipPath>
</defs>
</svg>
