<svg width="122" height="31" viewBox="0 0 122 31" fill="none" xmlns="http://www.w3.org/2000/svg">
<path d="M19.7036 30.3355C19.5392 30.3355 19.3853 30.2547 19.292 30.1193L13.6074 21.8759C13.5068 21.7299 13.3363 21.6484 13.1594 21.6602C12.5526 21.7008 12.0653 21.7212 11.6978 21.7212H5.32807C5.05193 21.7212 4.82807 21.945 4.82807 22.2212V29.8355C4.82807 30.1116 4.60421 30.3355 4.32807 30.3355H1.35715C1.08101 30.3355 0.857147 30.1116 0.857147 29.8355V2.5255C0.857147 2.24936 1.081 2.0255 1.35715 2.0255H11.6978C15.2981 2.0255 18.1306 2.90176 20.1955 4.65428C22.2604 6.40681 23.2928 8.81989 23.2928 11.8935C23.2928 14.0775 22.7634 15.9378 21.7045 17.4747C20.7578 18.8486 19.4515 19.8885 17.7854 20.5944C17.4825 20.7227 17.3619 21.0971 17.5494 21.3674L23.2249 29.5505C23.4549 29.8821 23.2176 30.3355 22.8141 30.3355H19.7036ZM11.5786 18.2835C14.0935 18.2835 16.0128 17.7308 17.3365 16.6254C18.6601 15.5199 19.3219 13.9427 19.3219 11.8935C19.3219 9.84445 18.6601 8.28066 17.3365 7.20218C16.0128 6.09675 14.0935 5.54403 11.5786 5.54403H5.32807C5.05193 5.54403 4.82807 5.76789 4.82807 6.04403V17.7835C4.82807 18.0597 5.05193 18.2835 5.32807 18.2835H11.5786Z" fill="black"/>
<path d="M65.3772 9.07724C65.3772 8.8011 65.601 8.57724 65.8772 8.57724H71.0718C71.3479 8.57724 71.5718 8.8011 71.5718 9.07724V29.8355C71.5718 30.1116 71.3479 30.3355 71.0718 30.3355H68.4745H65.3772V25.0122V9.07724Z" fill="black"/>
<path d="M87.2036 8.2537C89.8508 8.2537 91.9819 9.06255 93.5967 10.6803C95.2381 12.298 96.0587 14.6976 96.0587 17.8791V29.8355C96.0587 30.1116 95.8349 30.3355 95.5587 30.3355H90.3641C90.0879 30.3355 89.8641 30.1116 89.8641 29.8355V18.8497C89.8641 17.1242 89.4935 15.8435 88.7522 15.0076C88.011 14.1449 86.9388 13.7135 85.5358 13.7135C83.9739 13.7135 82.7297 14.2123 81.8031 15.2099C80.8766 16.1805 80.4133 17.6364 80.4133 19.5777V29.8355C80.4133 30.1116 80.1894 30.3355 79.9133 30.3355H74.7187C74.4425 30.3355 74.2187 30.1116 74.2187 29.8355V9.07724C74.2187 8.8011 74.4425 8.57724 74.7187 8.57724H79.6353C79.9115 8.57724 80.1353 8.8011 80.1353 9.07724V9.81699C80.1353 10.2759 80.7267 10.5143 81.0862 10.229C81.706 9.73714 82.4082 9.33484 83.1929 9.02211C84.4107 8.50984 85.7476 8.2537 87.2036 8.2537Z" fill="black"/>
<path d="M108.094 22.2437C107.908 22.0087 107.559 21.9888 107.347 22.2012L104.912 24.6485C104.819 24.7422 104.766 24.869 104.766 25.0012V29.8355C104.766 30.1116 104.542 30.3355 104.266 30.3355H99.0716C98.7954 30.3355 98.5716 30.1116 98.5716 29.8355V0.826905C98.5716 0.550763 98.7954 0.326904 99.0716 0.326904H104.266C104.542 0.326904 104.766 0.550762 104.766 0.826904V16.1357C104.766 16.5768 105.296 16.8018 105.613 16.4955L113.675 8.71742C113.768 8.62749 113.892 8.57724 114.022 8.57724H120.029C120.47 8.57724 120.695 9.10688 120.389 9.42437L112.611 17.4872C112.439 17.6658 112.423 17.9437 112.575 18.1401L121.377 29.5297C121.631 29.8584 121.397 30.3355 120.982 30.3355H114.737C114.584 30.3355 114.44 30.2656 114.345 30.1457L108.094 22.2437Z" fill="black"/>
<path d="M50.8471 28.3538C52.2502 29.6749 54.2224 30.3355 56.7638 30.3355H65.3772V25.0122H57.7303C56.8832 25.0122 56.2214 24.7695 55.7449 24.2842C55.2948 23.7719 55.0698 23.0575 55.0698 22.1407V13.7838C55.0698 13.5076 55.2937 13.2838 55.5698 13.2838H59.8909C60.167 13.2838 60.3909 13.0599 60.3909 12.7838V8.93063C60.3909 8.65449 60.167 8.43063 59.8909 8.43063H55.5698C55.2937 8.43063 55.0698 8.20678 55.0698 7.93063V3.63263C55.0698 3.35648 54.846 3.13263 54.5698 3.13263H49.3752C49.099 3.13263 48.8752 3.35648 48.8752 3.63263V7.93063C48.8752 8.20678 48.6513 8.43063 48.3752 8.43063H46.0793C45.8032 8.43063 45.5793 8.65449 45.5793 8.93063V12.7838C45.5793 13.0599 45.8032 13.2838 46.0793 13.2838H48.3701C48.6482 13.2838 48.8729 13.5107 48.8701 13.7888L48.7822 22.53C48.7822 25.0914 49.4705 27.0326 50.8471 28.3538Z" fill="black"/>
<path fill-rule="evenodd" clip-rule="evenodd" d="M44.773 19.7395C44.773 19.9389 44.7611 20.1811 44.7371 20.4659C44.7157 20.7202 44.5004 20.9123 44.2452 20.9123H28.1858C27.8848 20.9123 27.6506 21.1769 27.7081 21.4723C28.0256 23.1032 28.8032 24.4399 30.0409 25.4823C31.444 26.6147 33.178 27.1809 35.2428 27.1809H44.273C44.5492 27.1809 44.773 27.4048 44.773 27.6809V30.0781C44.773 30.3543 44.5492 30.5781 44.273 30.5781H35.1237C32.9 30.5781 30.9278 30.1198 29.207 29.2031C27.4863 28.2594 26.1494 26.9518 25.1964 25.2801C24.2699 23.6085 23.8066 21.7212 23.8066 19.6181C23.8066 17.5421 24.2566 15.6682 25.1567 13.9966C26.0832 12.3249 27.3407 11.0308 28.9291 10.1141C30.5439 9.1704 32.3573 8.69857 34.3692 8.69857C36.3812 8.69857 38.1681 9.1704 39.73 10.1141C41.3183 11.0308 42.5493 12.3249 43.4229 13.9966C44.323 15.6682 44.773 17.5825 44.773 19.7395ZM29.763 13.673C31.0072 12.5406 32.5426 11.9744 34.3692 11.9744C36.1959 11.9744 37.718 12.5541 38.9358 13.7135C40.0498 14.7274 40.75 16.0115 41.0364 17.5659C41.0906 17.8601 40.857 18.1217 40.5578 18.1217H28.1797C27.8809 18.1217 27.6474 17.8607 27.7001 17.5665C27.983 15.9867 28.6706 14.6888 29.763 13.673Z" fill="black"/>
</svg>
